<svg width="140" height="52" viewBox="0 0 140 52" fill="none" xmlns="http://www.w3.org/2000/svg">
<g clip-path="url(#clip0_745_3)">
<path d="M0 51.1377H50.927V40.7391H46.0768V46.2675H4.85019V4.87026H46.0768V10.7935H50.927V0H0V51.1377Z" fill="#0F2033"/>
<path d="M21.3671 10.2666H9.70044V35.8026H21.3016C25.4963 35.8026 28.9046 32.3802 28.9046 28.1681C28.9046 26.1937 28.118 24.3509 26.8727 22.9688C28.118 21.5867 28.9046 19.8097 28.9046 17.7694C28.9046 13.6231 25.4963 10.2666 21.3671 10.2666ZM14.5506 15.1369H21.3016C22.8091 15.1369 24.0544 16.3873 24.0544 17.9011C24.0544 19.4148 22.8091 20.6653 21.3016 20.6653H14.5506V15.1369ZM21.3671 30.9323H14.5506V25.4697H21.3016C22.8091 25.4697 24.0544 26.7202 24.0544 28.2339C24.0544 29.7476 22.8746 30.9323 21.3671 30.9323Z" fill="#0F2033"/>
<path d="M63.9044 15.3613C58.3333 15.3613 53.8108 19.9025 53.8108 25.4967C53.8108 31.091 58.3333 35.6321 63.9044 35.6321C69.4756 35.6321 73.9981 31.091 73.9981 25.4967C73.9981 19.9025 69.4756 15.3613 63.9044 15.3613ZM63.9044 30.6961C61.0205 30.6961 58.661 28.3267 58.661 25.4309C58.661 22.5351 61.0205 20.1658 63.9044 20.1658C66.7883 20.1658 69.1479 22.5351 69.1479 25.4309C69.1479 28.3267 66.7883 30.6961 63.9044 30.6961Z" fill="#0F2033"/>
<path d="M129.906 15.3613C124.335 15.3613 119.813 19.9025 119.813 25.4967C119.813 31.091 124.335 35.6321 129.906 35.6321C135.478 35.6321 140 31.091 140 25.4967C140 19.9025 135.412 15.3613 129.906 15.3613ZM129.906 30.6961C127.022 30.6961 124.663 28.3267 124.663 25.4309C124.663 22.5351 127.022 20.1658 129.906 20.1658C132.79 20.1658 135.15 22.5351 135.15 25.4309C135.15 28.3267 132.725 30.6961 129.906 30.6961Z" fill="#0F2033"/>
<path d="M86.9757 15.3607C85.075 15.3607 83.3053 15.8873 81.7323 16.8087V15.2949H76.8821V45.1746H81.7323V34.1178C83.2398 35.0392 85.0094 35.5657 86.9757 35.5657C92.5469 35.5657 97.0693 31.0245 97.0693 25.4303C97.0693 19.8361 92.5469 15.3607 86.9757 15.3607ZM86.9757 30.6955C84.0918 30.6955 81.7323 28.3262 81.7323 25.4303C81.7323 22.5345 84.0918 20.1652 86.9757 20.1652C89.8596 20.1652 92.2192 22.5345 92.2192 25.4303C92.2192 28.3262 89.8596 30.6955 86.9757 30.6955Z" fill="#0F2033"/>
<path d="M46.0767 15.6641V26.326C46.0767 28.8927 43.9794 30.9988 41.4232 30.9988C38.867 30.9988 36.7696 28.8927 36.7696 26.326V15.6641H31.9194V26.326C31.9194 31.5911 36.1797 35.8691 41.4232 35.8691C43.1273 35.8691 44.7003 35.4084 46.0767 34.6186V35.8691H50.9269V15.6641H46.0767Z" fill="#0F2033"/>
<path d="M105.459 21.0213C105.459 19.8367 106.442 19.1127 108.343 19.1127C110.374 19.1127 111.554 20.1657 111.751 21.7453H116.601C116.339 17.7306 113.389 15.0322 108.474 15.0322C103.558 15.0322 100.477 17.7306 100.477 21.0871C100.477 28.5242 111.882 26.2207 111.882 29.8404C111.882 31.0251 110.768 31.9465 108.801 31.9465C106.835 31.9465 105.328 30.7618 105.197 29.2481H100.084C100.281 32.9995 103.82 35.9612 108.867 35.9612C113.914 35.9612 116.798 33.3286 116.798 29.8404C116.601 22.4034 105.459 24.7069 105.459 21.0213Z" fill="#0F2033"/>
</g>
<defs>
<clipPath id="clip0_745_3">
<rect width="140" height="51.1377" fill="white"/>
</clipPath>
</defs>
</svg>
