<svg width="101" height="101" viewBox="0 0 101 101" fill="none" xmlns="http://www.w3.org/2000/svg">
<rect x="0.5" y="0.5" width="100" height="100" rx="11.5" fill="white"/>
<rect x="0.5" y="0.5" width="100" height="100" rx="11.5" stroke="black"/>
<path d="M12 88.3145H88V72.7963H80.7619V81.0465H19.2381V19.2681H80.7619V28.1076H88V12H12V88.3145Z" fill="#0F2033"/>
<path d="M43.8866 27.3213H26.4761V65.4295H43.7888C50.0488 65.4295 55.135 60.3222 55.135 54.0363C55.135 51.0898 53.9613 48.3397 52.1028 46.2772C53.9613 44.2146 55.135 41.5627 55.135 38.518C55.135 32.3304 50.0488 27.3213 43.8866 27.3213ZM33.7142 34.5893H43.7888C46.0385 34.5893 47.8969 36.4555 47.8969 38.7145C47.8969 40.9734 46.0385 42.8396 43.7888 42.8396H33.7142V34.5893ZM43.8866 58.1614H33.7142V50.0094H43.7888C46.0385 50.0094 47.8969 51.8755 47.8969 54.1345C47.8969 56.3935 46.1363 58.1614 43.8866 58.1614Z" fill="#0F2033"/>
<path d="M80.7618 35.376V51.2871C80.7618 55.1176 77.6318 58.2605 73.8172 58.2605C70.0025 58.2605 66.8725 55.1176 66.8725 51.2871V35.376H59.6344V51.2871C59.6344 59.1445 65.9922 65.5286 73.8172 65.5286C76.3603 65.5286 78.7078 64.841 80.7618 63.6624V65.5286H87.9999V35.376H80.7618Z" fill="#0F2033"/>
</svg>
